{"glyphs":{"0":{"ha":703,"x_min":39,"x_max":664,"o":"m 464 654 q 378 669 429 671 q 294 646 326 668 q 156 319 186 569 q 147 222 146 244 q 157 160 147 199 q 208 67 171 107 q 282 20 250 24 q 367 53 314 17 q 445 138 403 76 q 510 258 488 199 q 551 511 564 400 q 464 654 539 622 m 275 769 q 393 780 315 783 q 507 758 471 776 q 631 629 586 718 q 658 497 653 583 q 650 332 664 411 q 525 46 619 167 q 324 -90 431 -75 q 165 -52 238 -101 q 61 88 93 -3 q 43 225 47 129 q 49 388 39 321 q 129 635 69 536 q 199 717 156 678 q 275 769 242 757 z "},"1":{"ha":508,"x_min":42,"x_max":476,"o":"m 42 440 q 60 493 42 464 q 164 624 79 522 q 279 755 244 721 q 344 799 314 789 q 454 750 425 824 q 451 549 476 692 q 435 333 435 456 q 451 111 435 210 q 467 -19 467 15 q 449 -74 467 -54 q 397 -100 429 -97 q 343 -83 365 -103 q 322 -51 329 -71 q 303 38 315 -31 q 285 449 260 274 q 294 532 297 529 q 228 457 285 525 q 167 383 172 389 q 85 365 129 344 q 42 440 42 385 z "},"2":{"ha":831,"x_min":36,"x_max":789,"o":"m 419 185 q 574 178 419 181 q 671 174 638 176 q 731 167 704 172 q 769 152 758 163 q 784 128 779 142 q 789 90 789 115 q 776 40 789 60 q 743 19 763 19 l 571 17 q 373 4 422 14 q 301 -37 324 -6 q 253 -85 279 -69 q 162 -93 201 -115 q 122 -11 122 -71 q 174 100 122 64 q 318 364 224 136 q 383 533 354 450 q 411 635 411 615 q 389 635 411 647 q 236 476 349 615 q 158 399 181 408 q 108 392 135 386 q 63 421 81 399 q 44 477 36 451 q 114 581 53 503 q 361 794 253 756 q 467 799 417 815 q 544 736 517 783 q 557 549 586 667 q 492 360 538 479 q 419 185 447 240 z "},"3":{"ha":838,"x_min":39,"x_max":801,"o":"m 785 240 q 758 122 785 175 q 547 -65 694 -14 q 417 -81 499 -82 q 271 -62 335 -81 q 67 32 156 -31 q 42 77 44 47 q 56 131 39 107 q 103 156 74 156 q 194 121 129 156 q 418 61 319 56 q 605 138 533 68 q 643 279 676 207 q 596 317 629 307 q 492 321 563 326 q 382 316 401 314 q 349 336 363 318 q 331 386 333 354 q 342 428 328 418 q 455 494 346 431 q 596 582 564 557 q 628 609 617 600 q 645 625 639 618 q 651 635 651 632 q 646 639 650 638 q 523 637 621 654 q 351 593 425 619 l 351 554 q 351 519 354 529 q 332 493 347 510 q 293 470 310 471 q 250 488 276 469 q 186 599 186 531 q 281 717 186 672 q 515 781 367 756 q 714 764 626 800 q 796 644 801 728 q 713 488 790 556 l 660 439 q 727 398 694 429 q 774 335 760 367 q 785 240 785 301 z "},"4":{"ha":796,"x_min":15,"x_max":758,"o":"m 235 353 q 357 357 247 357 q 364 581 354 471 q 372 640 367 625 q 392 667 376 654 q 441 685 414 685 q 490 668 468 686 l 513 650 q 509 564 513 642 q 506 456 506 486 q 508 389 506 425 q 569 404 514 389 q 701 431 671 433 q 747 392 732 429 q 751 336 758 364 q 719 297 743 308 q 510 243 679 276 q 521 61 508 160 q 525 -44 531 -12 q 493 -89 519 -75 q 408 -86 440 -117 q 368 115 381 -61 q 357 197 363 188 q 297 207 349 208 q 271 206 278 206 q 190 206 211 203 q 139 222 169 208 q 49 475 15 278 q 103 653 60 543 q 171 792 146 764 q 212 806 186 808 q 260 785 238 804 q 284 731 285 765 q 253 619 283 697 q 210 358 167 390 q 235 353 225 349 z "},"5":{"ha":776,"x_min":32,"x_max":747,"o":"m 185 60 q 510 122 401 60 q 559 185 547 144 q 550 268 571 226 q 532 292 540 289 q 492 296 524 296 q 329 249 449 296 q 225 210 250 217 q 181 208 200 203 q 121 300 121 225 q 171 447 121 342 q 308 697 275 672 q 481 747 326 710 q 646 777 601 775 q 710 760 690 779 q 731 719 724 746 q 732 671 738 692 q 691 631 725 646 q 551 592 657 615 l 413 563 q 381 497 401 542 q 349 432 360 453 l 414 451 q 612 442 532 486 q 721 282 692 399 q 707 94 747 179 q 571 -39 667 8 q 442 -83 504 -71 q 265 -99 379 -96 q 103 -99 124 -104 q 47 -42 61 -87 q 58 39 32 3 q 87 57 71 54 q 185 60 103 60 z "},"6":{"ha":533,"x_min":31,"x_max":499,"o":"m 215 51 q 285 88 265 51 q 290 115 296 107 q 265 114 283 122 q 218 114 249 106 q 194 118 199 119 q 186 106 189 117 q 190 68 181 85 q 215 51 199 51 m 378 785 q 442 804 406 817 q 490 749 479 792 q 433 629 499 717 q 231 261 283 428 l 258 269 q 383 222 325 288 q 425 78 440 156 q 301 -73 406 -28 q 108 -58 196 -118 q 44 135 31 -6 q 174 474 58 265 q 378 785 289 683 z "},"7":{"ha":817,"x_min":36,"x_max":783,"o":"m 593 596 q 600 596 593 594 q 618 601 607 597 q 643 611 629 606 q 691 626 681 625 q 724 619 701 628 q 773 560 763 603 q 756 490 783 517 q 656 439 746 481 q 556 397 565 397 q 525 353 540 396 q 469 156 510 310 q 417 -34 432 11 q 388 -92 401 -79 q 311 -104 356 -118 q 260 -50 267 -90 q 281 74 257 -32 q 340 303 306 181 q 335 309 343 311 q 281 285 328 307 q 190 252 219 254 q 135 275 160 250 q 110 328 113 297 q 126 379 108 360 q 326 489 165 418 q 393 522 382 513 q 413 557 404 531 q 421 596 424 593 q 296 578 407 594 q 153 563 185 563 q 64 576 79 563 q 43 648 36 601 q 83 708 50 694 q 192 725 113 718 q 353 753 256 732 q 490 793 451 775 q 556 805 522 807 q 606 786 589 803 q 631 738 629 763 q 615 661 633 713 q 593 596 593 601 z "},"8":{"ha":518,"x_min":33,"x_max":478,"o":"m 296 142 q 286 199 296 176 q 269 213 276 219 q 233 150 261 206 q 211 81 214 111 q 222 46 208 51 q 264 75 232 43 q 290 108 285 96 q 296 142 296 119 m 235 453 q 303 568 257 478 q 344 674 350 658 q 338 685 344 685 q 285 663 331 685 q 212 611 240 642 q 183 554 183 581 q 205 495 183 538 q 235 453 226 453 m 222 -93 q 157 -74 196 -93 q 103 -35 118 -54 q 83 95 71 7 q 147 272 96 183 l 175 319 l 131 368 q 43 539 53 453 q 96 696 33 625 q 251 800 158 767 q 341 814 290 814 q 418 801 392 814 q 466 760 454 785 q 476 682 478 736 q 470 614 476 638 q 439 533 464 590 q 346 361 386 418 l 372 325 q 411 50 472 186 q 330 -51 385 -10 q 222 -93 275 -93 z "},"9":{"ha":653,"x_min":25,"x_max":654,"o":"m 407 733 q 388 668 407 689 q 318 638 369 647 q 235 579 246 625 q 233 564 232 568 q 237 560 233 560 q 251 565 240 560 q 281 578 254 567 q 314 594 307 590 q 342 610 321 599 q 372 630 363 622 q 392 650 381 638 q 410 675 404 663 q 475 740 432 721 q 553 738 518 758 q 581 569 654 678 q 432 117 528 490 q 369 -83 389 -54 q 308 -115 347 -114 q 238 -92 268 -117 q 207 -31 207 -68 q 308 378 207 14 q 267 372 307 379 q 124 396 185 357 q 46 513 64 435 q 88 693 25 603 q 254 811 151 783 q 364 812 321 831 q 407 733 407 793 z "}," ":{"ha":588,"x_min":0,"x_max":0,"o":""},"!":{"ha":267,"x_min":39,"x_max":229,"o":"m 100 47 q 148 58 115 58 q 194 49 181 58 q 226 -12 224 26 q 203 -78 229 -51 q 106 -89 161 -118 q 72 -24 74 -72 q 100 47 69 25 m 61 779 q 115 796 83 801 q 181 739 172 790 q 200 457 185 718 q 210 208 213 257 q 185 147 207 160 q 136 140 164 136 q 93 158 108 143 q 70 217 75 176 q 53 476 65 258 q 44 756 39 732 q 61 779 47 765 z "},"\"":{"ha":425,"x_min":42,"x_max":385,"o":"m 303 782 q 355 779 343 782 q 375 763 367 776 q 383 728 385 747 q 367 629 382 710 q 336 503 343 510 q 301 492 326 490 q 268 507 275 494 q 243 639 264 513 q 233 769 225 757 q 303 782 244 782 m 42 747 q 58 781 42 772 q 110 790 74 790 q 199 758 188 790 q 182 629 204 742 q 149 506 160 517 q 119 494 138 494 q 90 506 100 494 q 63 616 83 514 q 42 747 42 718 z "},"$":{"ha":751,"x_min":39,"x_max":710,"o":"m 501 157 q 504 144 501 144 q 536 164 508 143 q 544 249 617 218 q 500 258 508 264 q 497 218 492 253 q 501 157 501 183 m 411 190 q 406 233 411 190 q 390 276 401 276 q 385 235 379 276 q 390 196 385 233 q 396 142 394 158 q 411 99 404 99 q 411 190 421 104 m 271 479 q 261 525 267 524 q 240 496 256 525 l 225 468 q 272 431 269 431 q 274 438 274 432 q 273 456 274 444 q 271 479 272 468 m 383 439 q 379 483 382 444 q 372 548 376 521 q 358 579 367 575 q 351 572 353 582 q 363 443 349 554 q 378 403 367 401 q 383 439 388 404 m 390 806 q 428 781 417 806 q 438 719 440 756 q 476 718 444 719 q 522 716 508 717 q 560 713 536 715 q 597 705 583 710 q 619 693 611 700 q 672 630 658 671 q 667 551 686 589 q 609 487 650 521 q 546 453 568 453 q 496 497 510 453 q 508 568 482 542 q 501 597 533 594 q 476 597 497 597 q 456 594 458 597 q 457 568 454 590 q 461 529 458 558 q 465 493 464 500 q 479 402 474 415 q 508 385 485 389 q 696 282 651 363 q 709 210 710 253 q 693 133 708 167 q 626 63 678 101 q 521 0 575 24 q 523 -32 521 -7 q 524 -74 525 -57 q 518 -97 524 -92 q 469 -103 500 -118 q 438 -57 438 -87 q 426 -37 438 -37 q 415 -65 414 -37 q 379 -110 418 -110 q 347 -99 361 -110 q 333 -76 333 -89 q 323 -64 333 -67 q 271 -61 313 -61 q 178 -51 211 -61 q 115 -15 144 -42 q 44 135 54 40 q 46 208 39 186 q 79 240 53 229 q 140 239 115 256 q 164 182 164 222 q 201 87 164 121 q 294 64 239 53 q 313 72 308 67 q 314 90 317 76 q 292 292 303 151 q 149 367 213 297 q 113 517 92 431 q 219 656 135 603 l 247 672 q 246 790 235 767 q 276 806 253 804 q 311 794 299 808 q 328 746 322 785 q 343 710 333 710 q 350 746 353 710 q 357 792 347 778 q 390 806 367 806 z "},"%":{"ha":1046,"x_min":38,"x_max":1021,"o":"m 656 107 q 658 47 656 63 q 674 14 661 31 q 738 -21 697 -21 q 817 13 779 -21 q 876 104 860 50 q 869 193 892 158 q 831 233 851 219 q 775 249 811 246 q 683 222 711 254 q 656 107 656 189 m 386 543 q 318 550 386 593 q 266 528 288 532 q 231 534 244 524 q 210 560 218 544 q 196 601 203 575 l 183 569 q 172 491 169 538 q 192 422 174 444 q 250 385 215 390 q 315 399 285 381 q 365 456 344 417 q 386 543 386 496 m 242 -79 q 267 -15 242 -61 q 453 307 292 31 q 633 625 636 622 q 561 632 632 626 q 493 629 494 636 q 494 624 493 628 q 458 375 540 486 q 251 260 376 264 q 133 299 185 258 q 60 398 82 339 q 44 528 38 457 q 89 654 50 599 q 238 756 144 733 q 547 764 332 779 q 635 760 613 758 q 700 776 658 763 q 822 776 789 807 q 828 715 844 757 q 731 533 813 674 q 678 443 706 490 q 638 370 651 396 q 622 343 624 344 q 639 346 621 338 q 657 354 646 349 q 701 369 682 367 q 772 369 721 372 q 885 346 851 367 q 998 204 975 293 q 969 8 1021 115 q 869 -112 932 -71 q 735 -147 806 -154 q 621 -106 671 -142 q 546 -14 571 -69 q 528 100 529 22 q 521 167 526 167 q 518 164 519 167 q 436 24 476 94 q 348 -114 374 -85 q 294 -137 322 -143 q 257 -117 272 -133 q 242 -79 242 -100 z "},"&":{"ha":910,"x_min":33,"x_max":878,"o":"m 410 28 q 368 60 390 40 q 304 120 346 81 q 260 163 263 160 l 214 131 q 163 79 171 100 q 181 38 156 58 q 375 11 278 -39 l 410 28 m 472 651 q 394 675 443 671 q 313 665 344 679 q 262 623 278 650 q 242 544 246 596 q 296 315 233 454 q 417 390 354 343 q 499 467 479 436 q 526 569 533 518 q 472 651 519 621 m 722 303 q 676 193 722 282 q 601 64 631 104 q 668 36 601 54 q 813 7 735 18 q 863 -32 849 1 q 854 -89 878 -65 q 757 -97 835 -107 q 583 -53 679 -86 l 518 -29 q 325 -121 417 -111 q 151 -79 235 -129 q 44 49 67 -29 q 64 133 33 85 q 157 229 94 182 l 200 260 l 176 310 q 127 499 135 401 q 149 656 119 597 q 300 779 192 744 q 392 790 338 792 q 485 774 447 789 q 563 724 525 760 q 619 647 601 688 q 639 547 639 606 q 617 444 639 488 q 539 347 592 394 q 381 231 486 299 q 374 216 369 224 q 408 182 378 208 q 494 115 453 142 q 593 275 551 196 q 669 349 629 349 q 706 334 689 349 q 722 303 722 319 z "},"'":{"ha":235,"x_min":42,"x_max":193,"o":"m 193 726 q 173 594 193 690 q 144 492 153 497 q 111 485 133 485 q 81 506 90 485 q 57 613 71 528 q 42 732 42 700 q 56 774 42 764 q 121 777 68 781 q 185 764 174 774 q 193 726 193 756 z "},"(":{"ha":325,"x_min":42,"x_max":304,"o":"m 42 340 q 74 611 42 508 q 189 775 107 714 q 231 787 210 790 q 269 764 253 783 q 250 647 304 724 q 176 261 151 506 q 254 54 190 111 q 283 2 281 31 q 263 -49 285 -26 q 179 -54 231 -81 q 42 340 42 17 z "},")":{"ha":326,"x_min":21,"x_max":285,"o":"m 285 385 q 263 149 285 239 q 193 -4 242 58 q 63 -49 114 -103 q 71 63 21 -7 q 154 375 154 169 q 78 656 154 579 q 58 760 22 711 q 143 773 88 797 q 232 683 199 749 q 274 559 263 622 q 285 385 285 496 z "},"*":{"ha":419,"x_min":42,"x_max":382,"o":"m 169 703 q 210 742 169 739 q 244 723 236 743 q 250 667 253 703 q 304 701 289 701 q 343 674 332 701 q 333 629 354 646 q 328 619 325 622 q 347 608 331 615 q 375 585 369 599 q 374 550 382 568 q 351 528 367 532 q 332 520 333 524 q 339 500 331 517 q 323 453 354 471 q 265 458 292 435 q 253 466 256 468 q 250 446 250 464 q 231 411 250 419 q 189 411 208 401 q 169 442 169 421 q 168 459 169 458 q 154 449 167 460 q 98 452 126 424 q 94 508 69 481 q 104 523 106 521 q 88 525 103 525 q 55 538 68 525 q 42 569 42 551 q 58 599 42 585 q 93 614 75 614 q 96 628 108 614 q 85 680 76 650 q 121 710 94 710 q 153 697 135 710 q 167 689 165 689 q 169 703 169 689 z "},"+":{"ha":461,"x_min":42,"x_max":419,"o":"m 300 413 q 419 347 419 419 q 402 299 419 314 q 343 285 385 285 l 299 285 q 224 164 308 164 q 161 285 158 164 l 117 285 q 59 299 76 285 q 42 349 42 314 q 60 398 42 383 q 119 413 78 413 l 163 413 l 163 453 q 201 540 163 526 q 268 534 242 556 q 297 461 294 513 l 300 413 z "},",":{"ha":268,"x_min":35,"x_max":235,"o":"m 103 131 q 165 138 133 156 q 224 58 213 113 q 201 -40 235 3 q 153 -76 186 -60 q 93 -93 119 -93 q 48 -73 61 -93 q 47 -29 35 -53 q 90 3 58 -6 q 121 19 118 10 q 103 44 124 28 q 82 88 82 61 q 103 131 82 114 z "},"-":{"ha":463,"x_min":15,"x_max":424,"o":"m 75 413 q 394 404 365 413 q 421 357 418 392 q 404 299 424 322 q 368 287 396 289 q 233 285 340 285 l 75 285 q 58 392 15 344 l 75 413 z "},".":{"ha":242,"x_min":31,"x_max":200,"o":"m 47 14 q 88 57 57 42 q 151 58 119 72 q 199 -19 200 39 q 147 -92 199 -78 q 63 -72 94 -107 q 47 14 31 -37 z "},"/":{"ha":449,"x_min":42,"x_max":414,"o":"m 42 -19 q 144 369 42 4 q 263 772 246 735 q 292 806 276 799 q 376 799 339 825 q 406 729 414 774 q 298 340 401 706 q 185 -49 194 -26 q 150 -82 176 -69 q 100 -89 124 -94 q 42 -19 42 -75 z "},":":{"ha":240,"x_min":38,"x_max":201,"o":"m 81 219 q 158 215 122 236 q 197 158 193 194 q 174 86 201 122 q 119 66 154 67 q 64 86 83 65 q 43 160 38 115 q 81 219 49 206 m 81 557 q 158 553 122 574 q 197 496 193 532 q 174 424 201 460 q 119 403 154 404 q 64 424 83 403 q 43 498 38 453 q 81 557 49 543 z "},";":{"ha":265,"x_min":36,"x_max":224,"o":"m 222 161 q 150 53 222 89 q 47 61 69 14 q 47 104 36 85 q 89 133 58 124 q 126 158 126 146 q 115 164 126 164 q 91 182 104 164 q 78 217 78 200 q 94 256 78 235 q 174 262 126 297 q 222 161 222 226 m 69 461 q 90 521 69 500 q 146 543 113 543 q 201 521 179 543 q 224 461 224 497 q 201 401 224 425 q 140 381 178 378 q 81 413 101 385 q 69 461 69 426 z "},"<":{"ha":703,"x_min":40,"x_max":672,"o":"m 593 140 q 323 247 572 140 q 56 371 74 353 q 41 413 42 383 q 54 460 40 443 q 296 584 63 469 q 571 713 529 699 q 622 704 594 721 q 656 663 650 688 q 638 606 664 626 q 461 513 611 586 q 367 467 411 489 q 298 432 322 444 q 275 418 274 419 q 335 390 276 417 q 463 333 393 364 q 589 275 532 301 q 646 246 646 249 q 653 181 672 221 q 593 140 633 140 z "},"=":{"ha":464,"x_min":26,"x_max":432,"o":"m 422 268 q 407 228 422 249 q 373 210 396 214 q 246 206 350 207 q 91 209 126 203 q 49 239 56 215 q 81 332 26 310 q 232 340 97 340 q 390 329 357 342 q 422 268 422 317 m 71 515 q 240 522 89 525 q 374 518 353 521 q 407 501 396 515 q 418 435 432 471 q 364 393 404 400 q 208 390 338 388 q 63 407 78 393 q 42 466 39 429 q 71 515 44 503 z "},">":{"ha":707,"x_min":29,"x_max":675,"o":"m 110 140 q 53 178 78 140 q 53 240 29 217 q 106 271 50 243 q 251 338 144 289 q 428 422 428 417 q 245 511 426 424 q 64 603 64 599 q 49 647 49 617 q 68 692 50 676 q 101 711 85 708 q 165 697 119 715 q 404 585 210 678 q 608 485 563 510 q 660 444 653 460 q 653 374 675 408 q 388 250 643 360 q 110 140 132 140 z "},"?":{"ha":599,"x_min":36,"x_max":569,"o":"m 419 -29 q 388 -95 419 -72 q 318 -108 356 -118 q 267 -57 281 -97 q 266 -3 258 -31 q 293 39 274 25 q 376 42 332 67 q 419 -29 419 18 m 353 236 q 388 215 371 236 q 404 169 404 193 q 385 126 404 146 q 344 107 367 107 q 255 134 300 107 q 190 199 210 161 q 190 310 165 246 q 300 493 214 375 q 404 657 404 638 q 399 657 404 658 q 384 651 393 656 q 365 642 375 647 q 183 506 300 607 q 61 488 104 436 q 43 542 36 517 q 97 610 50 567 q 358 792 246 753 q 472 795 411 810 q 547 746 532 781 q 541 630 569 699 q 413 417 513 561 q 318 269 324 290 q 324 245 315 254 q 353 236 332 236 z "},"@":{"ha":929,"x_min":42,"x_max":888,"o":"m 357 351 q 375 301 357 331 q 408 269 393 272 q 426 281 417 268 q 445 319 436 294 q 461 376 454 344 q 479 426 468 411 q 461 436 475 435 q 387 411 417 435 q 357 351 357 388 m 692 260 q 759 337 740 274 q 767 471 778 400 q 725 588 756 542 q 574 666 678 657 q 369 635 469 675 q 219 531 268 594 q 169 401 181 478 q 179 268 157 324 q 331 110 219 161 q 639 60 443 60 q 725 57 706 60 q 754 43 744 54 q 769 -3 769 25 q 753 -47 769 -31 q 715 -62 739 -60 q 588 -64 692 -65 q 378 -46 436 -62 q 67 193 151 15 q 42 334 43 242 q 60 476 42 426 q 203 683 104 607 q 461 785 301 758 q 550 789 471 786 q 799 696 713 790 q 888 421 886 601 q 796 174 888 256 q 684 134 744 129 q 568 192 624 139 l 542 215 q 399 143 486 131 q 244 281 279 161 q 274 475 213 399 q 468 563 335 551 q 527 563 515 565 q 553 547 539 561 q 573 501 571 529 q 560 457 575 472 q 551 447 553 450 q 552 441 550 443 q 561 435 554 439 q 606 361 575 426 q 692 260 653 260 z "},"A":{"ha":721,"x_min":42,"x_max":679,"o":"m 451 326 q 451 378 453 336 q 447 474 450 421 q 443 542 443 526 q 329 303 332 314 q 390 311 332 300 q 451 326 447 322 m 483 814 q 546 773 535 814 q 564 511 557 732 l 569 349 l 610 349 q 664 336 649 349 q 679 292 679 324 q 664 251 679 264 q 610 232 649 238 l 576 226 l 581 89 q 579 -46 585 -25 q 538 -74 574 -67 q 492 -60 514 -78 q 472 -27 475 -46 q 465 83 468 -8 q 454 201 461 197 q 444 201 451 203 q 394 192 440 200 q 308 175 349 183 q 260 163 267 167 q 197 57 244 153 q 139 -49 154 -28 q 101 -69 124 -69 q 64 -54 79 -69 q 42 -12 42 -35 q 69 65 43 11 q 99 139 104 136 q 90 140 97 140 q 58 158 72 140 q 43 199 44 175 q 56 239 42 228 q 121 260 71 250 l 172 269 q 243 414 193 314 q 357 637 293 514 q 447 814 421 760 l 483 814 z "},"B":{"ha":853,"x_min":36,"x_max":811,"o":"m 524 378 q 442 368 461 367 q 404 393 422 369 q 394 381 401 394 q 378 344 388 368 q 360 293 369 321 q 339 233 350 265 q 319 172 328 200 q 303 119 311 144 q 290 83 294 94 q 419 125 343 96 q 538 179 496 154 q 626 246 586 210 q 671 303 665 282 q 636 378 683 358 q 598 386 615 386 q 524 378 581 386 m 421 476 q 636 590 572 521 q 681 676 697 656 q 539 669 658 700 q 478 651 482 656 q 462 606 476 650 q 433 519 447 563 q 421 476 419 476 m 811 683 q 699 479 811 575 q 771 432 739 465 q 794 399 790 411 q 799 346 799 386 q 771 238 799 288 q 204 -58 665 36 q 109 -76 128 -74 q 75 -69 90 -78 q 44 -34 51 -57 q 49 10 36 -11 q 104 40 60 31 q 153 57 149 51 q 329 583 157 61 q 333 600 335 599 q 317 596 331 601 q 268 588 294 586 q 235 600 242 590 q 222 660 211 629 q 274 708 233 690 q 531 790 414 769 q 683 807 614 810 q 786 761 751 804 q 807 728 803 740 q 811 683 811 715 z "},"C":{"ha":842,"x_min":25,"x_max":808,"o":"m 753 124 q 797 85 786 124 q 782 22 808 47 q 549 -54 740 -14 q 369 -73 469 -72 q 221 -58 269 -74 q 44 150 67 -11 q 149 451 25 303 q 510 732 283 613 q 576 754 553 754 q 618 732 600 754 q 631 692 631 718 q 782 422 632 665 q 535 603 599 639 q 215 344 307 472 q 183 119 122 217 q 643 96 269 -18 q 753 124 733 124 z "},"D":{"ha":1043,"x_min":42,"x_max":1001,"o":"m 544 665 q 536 559 539 656 q 532 358 533 463 q 529 242 531 253 l 524 172 q 647 206 569 181 q 761 250 725 232 q 867 337 844 292 q 858 443 890 382 q 753 566 825 508 q 606 646 681 624 q 544 665 586 651 m 1001 381 q 989 292 1001 324 q 935 218 976 261 q 795 125 883 164 q 536 43 707 86 l 503 35 l 493 -25 q 465 -99 483 -78 q 417 -114 447 -119 q 374 -91 385 -108 q 365 -35 363 -74 l 368 11 q 250 29 290 7 q 206 114 210 51 q 205 156 203 146 q 219 175 207 165 q 285 184 247 194 q 324 147 324 174 q 330 135 324 136 q 358 136 336 133 q 394 143 393 142 q 406 286 400 147 q 413 542 413 425 q 408 678 413 658 q 399 676 407 678 q 374 673 390 675 q 343 669 357 671 q 161 601 228 653 q 63 593 104 556 q 42 638 42 617 q 65 683 43 660 q 108 722 88 707 q 147 746 128 736 q 254 781 185 764 q 361 799 324 799 q 421 814 404 799 q 465 828 439 828 q 510 814 492 828 q 589 785 533 796 q 826 672 714 757 q 985 486 938 588 q 1001 381 1001 451 z "},"E":{"ha":903,"x_min":39,"x_max":867,"o":"m 522 461 q 564 449 551 461 q 576 411 576 438 q 485 346 576 356 q 370 324 435 340 q 296 297 306 307 q 232 168 285 289 q 172 21 171 31 q 200 18 174 14 q 204 19 201 19 q 450 89 263 29 q 601 132 586 132 q 645 91 635 132 q 626 31 656 50 q 513 -14 608 18 q 339 -67 418 -46 q 167 -89 251 -89 q 88 -87 106 -90 q 58 -71 71 -83 q 43 -16 39 -51 q 78 104 47 19 q 119 213 97 157 q 107 232 124 226 q 76 261 88 240 q 77 305 63 285 q 144 357 92 325 q 199 398 186 383 q 240 464 213 413 q 268 532 274 528 q 257 533 267 533 q 214 561 229 533 q 213 614 199 589 q 389 706 226 642 q 686 801 551 769 q 815 819 785 824 q 858 775 846 815 q 847 732 867 747 q 761 701 826 717 q 442 606 571 658 l 399 521 q 371 440 360 440 q 444 454 392 447 q 522 461 497 461 z "},"F":{"ha":797,"x_min":25,"x_max":758,"o":"m 229 -110 q 108 81 143 -110 l 94 157 l 115 176 q 172 190 147 204 q 206 126 197 176 q 213 97 210 99 q 218 104 215 97 q 237 215 224 118 q 247 315 250 313 q 210 306 242 318 q 114 343 114 268 q 133 378 114 364 q 204 414 151 393 l 264 438 q 267 472 264 446 q 272 519 271 499 q 272 546 274 540 q 190 513 269 549 q 99 478 124 482 q 57 494 75 475 q 56 558 25 532 q 232 649 67 569 q 458 754 397 729 q 594 799 510 776 q 698 820 671 819 q 740 806 725 821 q 756 768 754 792 q 746 735 758 744 q 618 693 718 724 q 478 647 518 663 l 388 611 q 374 492 379 514 q 378 485 372 486 q 403 490 383 485 q 453 508 422 496 q 538 540 483 519 q 633 547 610 571 q 643 508 643 538 q 633 469 643 478 q 499 415 632 467 q 365 363 367 364 q 333 175 361 361 q 308 24 318 75 q 287 -60 299 -26 q 263 -101 275 -93 q 229 -110 250 -110 z "},"G":{"ha":778,"x_min":40,"x_max":736,"o":"m 181 253 q 247 271 201 253 q 326 313 292 289 q 354 336 354 333 q 305 326 319 325 q 275 343 290 328 q 255 388 256 363 q 272 432 254 413 q 472 511 289 449 q 686 574 654 574 q 722 557 708 574 q 736 513 736 540 q 718 469 735 485 q 650 436 701 454 l 588 414 q 576 271 581 299 q 528 56 571 243 q 478 -94 496 -81 q 415 -101 447 -119 q 382 -40 383 -82 q 402 75 382 -21 q 436 215 422 171 q 438 225 439 225 q 417 213 435 226 q 333 168 390 194 q 120 140 200 104 q 42 300 40 175 q 225 644 44 457 q 319 731 279 701 q 407 779 358 760 q 499 798 451 797 q 574 782 546 799 q 626 703 611 758 q 617 622 642 647 q 556 600 589 594 q 511 640 524 606 q 489 674 501 669 q 399 629 465 683 q 265 490 333 575 q 193 384 215 426 q 168 299 171 342 q 166 267 165 278 q 169 255 167 257 q 181 253 172 253 z "},"H":{"ha":863,"x_min":42,"x_max":821,"o":"m 750 846 q 801 829 781 846 q 821 786 821 813 q 711 365 821 763 q 590 -51 601 -32 q 545 -79 578 -75 q 488 -66 513 -83 q 467 -18 463 -49 q 526 212 464 -17 q 585 442 588 440 q 574 437 583 443 q 543 414 565 431 q 333 283 508 386 q 146 -101 171 -68 q 77 -99 113 -119 q 42 -42 42 -79 q 100 107 42 -19 q 146 235 158 231 q 112 262 126 242 q 97 303 97 282 q 113 346 97 332 q 176 379 128 360 l 236 400 q 408 757 379 717 q 451 766 426 769 q 494 744 476 763 q 515 697 515 724 q 490 621 514 669 q 446 517 442 517 q 599 642 460 517 q 650 697 640 681 q 675 757 660 713 q 685 788 679 768 q 693 814 690 808 q 703 830 696 819 q 721 843 710 840 q 750 846 732 846 z "},"I":{"ha":714,"x_min":33,"x_max":678,"o":"m 617 192 q 599 148 617 168 q 556 119 582 128 q 339 26 471 92 q 161 -92 207 -40 q 103 -126 128 -128 q 49 -94 64 -125 q 51 -25 33 -64 q 108 38 64 1 q 207 106 153 75 q 233 120 219 113 q 254 132 247 128 l 261 136 q 251 197 249 183 q 286 332 253 211 q 325 482 326 481 q 301 474 321 486 q 258 461 283 461 q 221 475 232 461 q 221 564 182 529 q 403 701 240 582 q 593 836 565 821 q 649 832 621 850 q 671 775 678 814 q 658 735 667 747 q 600 688 649 724 q 515 624 525 632 q 438 399 497 610 q 392 194 381 194 q 467 224 400 200 q 581 242 546 250 q 617 192 617 235 z "},"J":{"ha":758,"x_min":42,"x_max":717,"o":"m 663 799 q 701 781 686 799 q 717 735 717 763 q 701 693 717 706 q 619 650 686 681 q 499 587 547 619 q 456 542 450 554 q 496 296 496 435 q 492 195 496 221 q 476 136 489 169 q 363 -19 438 42 q 208 -81 288 -79 q 160 -78 174 -82 q 125 -56 147 -74 q 42 146 42 13 q 58 206 42 183 q 104 228 75 228 q 151 209 136 228 q 168 147 167 190 q 205 42 175 56 q 299 92 235 29 q 378 269 372 161 q 370 379 381 314 q 347 468 360 444 q 342 469 346 471 q 328 463 338 468 q 308 447 319 457 q 278 421 296 436 q 196 365 222 372 q 147 385 169 357 q 131 440 122 415 q 189 513 139 465 q 417 684 283 599 q 663 799 551 769 z "},"K":{"ha":740,"x_min":42,"x_max":708,"o":"m 363 763 q 340 646 363 750 q 308 513 318 542 q 314 513 307 508 q 368 558 331 522 q 581 710 524 710 q 626 690 608 710 q 644 642 644 671 q 626 600 644 619 q 539 532 607 581 q 376 378 467 479 q 650 242 483 350 q 696 149 708 203 q 654 100 686 108 q 585 122 622 92 q 424 211 546 154 q 294 258 303 268 q 278 222 293 257 q 245 138 264 186 q 206 41 226 89 q 172 -40 186 -7 q 153 -74 157 -74 q 104 -90 136 -92 q 57 -69 72 -89 q 42 -33 42 -49 q 115 276 57 38 q 190 593 174 515 q 256 813 232 785 q 326 822 283 842 q 363 763 369 801 z "},"L":{"ha":463,"x_min":40,"x_max":422,"o":"m 283 776 q 232 497 283 767 q 198 315 215 408 q 176 199 181 222 q 167 135 171 176 q 163 76 163 94 q 167 7 164 57 l 249 90 q 322 158 303 144 q 358 172 340 172 q 403 157 386 172 q 421 118 419 142 q 375 33 422 92 q 197 -106 283 -79 q 76 -96 111 -131 q 42 47 40 -61 q 97 477 43 165 q 176 815 151 789 q 241 824 199 839 q 283 776 283 808 z "},"M":{"ha":969,"x_min":42,"x_max":935,"o":"m 350 804 q 413 818 375 832 q 444 768 450 804 q 399 635 439 732 q 419 655 403 639 q 447 681 436 671 q 474 697 458 690 q 501 700 490 704 q 560 639 549 696 q 546 481 572 582 q 531 415 528 418 q 551 445 532 414 q 603 529 571 476 q 796 775 718 721 q 913 799 878 833 q 923 699 935 778 q 850 385 911 619 q 768 13 778 107 q 751 -90 761 -75 q 711 -102 740 -104 q 668 -85 682 -100 q 654 14 653 -68 q 671 163 657 92 q 729 392 685 235 q 775 567 778 561 q 581 268 768 585 q 468 90 488 113 q 407 61 442 60 q 360 94 372 63 q 359 182 353 111 q 379 304 365 253 q 390 361 393 354 q 304 200 390 369 q 184 -21 221 38 q 119 -90 147 -79 q 93 -98 100 -99 q 71 -86 86 -97 q 42 -32 43 -65 q 67 85 42 1 q 217 501 108 224 q 350 804 326 778 z "},"N":{"ha":778,"x_min":40,"x_max":746,"o":"m 329 490 q 315 476 329 504 q 290 419 304 456 q 181 24 232 268 q 149 -94 161 -72 q 104 -117 136 -117 q 57 -96 72 -117 q 42 -55 40 -74 q 65 64 43 -36 q 175 460 118 303 q 278 653 232 617 q 333 670 300 671 q 386 651 365 669 q 431 578 417 626 q 461 397 444 531 q 492 201 472 311 q 521 78 513 92 q 554 156 533 56 q 610 606 596 349 q 619 742 615 718 q 639 781 624 767 q 690 797 663 801 q 731 765 717 792 q 720 463 746 736 q 667 85 694 190 q 546 -75 628 -54 q 451 -42 493 -90 q 385 110 410 6 q 352 308 375 149 q 329 490 329 467 z "},"O":{"ha":901,"x_min":32,"x_max":861,"o":"m 601 615 q 351 568 469 657 q 185 303 232 479 q 167 168 168 240 q 179 58 165 96 q 272 -22 204 -6 q 418 1 339 -39 q 658 224 560 71 q 731 486 757 376 q 684 565 719 529 q 601 615 649 601 m 449 744 q 681 720 578 764 q 833 578 785 676 q 860 425 861 521 q 798 208 857 321 q 633 -1 739 96 q 431 -130 536 -92 q 239 -144 326 -168 q 43 207 32 -92 q 170 558 50 397 q 449 744 290 719 z "},"P":{"ha":688,"x_min":40,"x_max":646,"o":"m 140 60 q 190 279 143 40 q 226 488 222 440 q 211 474 224 494 q 207 468 208 471 q 143 281 160 393 q 133 81 128 179 q 140 60 136 57 m 553 688 q 550 710 554 706 q 529 717 546 715 q 385 644 489 721 q 354 617 360 626 q 346 578 349 607 q 331 468 342 519 q 528 611 492 521 q 553 688 550 661 m 646 688 q 563 481 646 563 q 437 397 511 429 q 333 379 363 364 q 313 376 317 389 q 285 228 310 364 q 252 62 264 108 q 218 -28 240 15 q 132 -101 181 -101 q 58 -31 90 -101 q 44 24 47 -6 q 42 143 42 54 q 76 425 40 324 q 214 633 113 526 q 474 815 356 783 q 542 817 500 822 q 603 800 585 811 q 646 688 646 772 z "},"Q":{"ha":1033,"x_min":40,"x_max":994,"o":"m 433 60 q 679 111 576 60 l 635 163 q 574 268 583 222 q 599 332 564 314 q 643 334 619 343 q 682 301 667 325 q 735 234 700 272 q 776 196 769 196 q 806 245 788 196 q 832 342 825 294 q 807 561 853 471 q 747 635 788 599 q 665 686 707 671 q 358 648 510 744 q 161 368 206 551 q 197 140 126 219 q 433 60 267 60 m 453 811 q 685 803 571 838 q 861 692 800 769 q 923 585 904 635 q 950 451 942 535 q 883 140 968 267 l 857 100 q 954 25 910 58 q 992 -37 989 -1 q 963 -86 994 -74 q 936 -87 947 -90 q 893 -69 925 -85 q 764 25 831 -39 l 726 7 q 538 -44 654 -29 q 326 -42 421 -58 q 64 122 129 -7 q 44 177 47 156 q 42 264 40 199 q 57 413 42 358 q 205 672 97 564 q 453 811 313 781 z "},"R":{"ha":950,"x_min":42,"x_max":913,"o":"m 507 285 q 569 240 507 281 q 740 119 619 208 q 888 4 860 31 q 908 -31 903 -11 q 903 -65 913 -50 q 878 -84 896 -75 q 847 -93 861 -93 q 683 17 833 -93 q 440 188 451 188 q 435 151 435 188 q 413 30 435 100 q 369 -54 390 -40 q 328 -60 356 -62 q 289 -47 301 -58 q 276 -16 275 -33 q 294 40 278 1 q 331 253 335 129 q 250 283 274 253 q 256 363 226 314 q 260 370 257 367 q 269 376 264 374 q 281 379 275 378 q 294 381 286 381 q 308 381 303 381 q 324 381 314 381 q 338 381 333 381 q 354 561 349 494 q 372 664 360 642 q 424 686 385 686 q 466 661 458 686 q 467 549 474 636 q 456 422 458 433 q 456 399 453 403 q 474 400 458 396 q 578 446 492 404 q 657 661 825 567 q 411 708 563 715 q 113 633 260 700 q 46 606 51 606 q 42 665 42 606 q 44 718 42 708 q 64 736 47 728 q 201 783 103 757 q 354 817 299 810 q 669 785 539 836 q 840 614 799 733 q 740 404 878 507 q 633 341 707 379 q 529 296 560 303 q 507 285 507 290 z "},"S":{"ha":804,"x_min":33,"x_max":775,"o":"m 600 493 q 553 514 568 493 q 538 556 533 538 q 578 611 543 574 q 626 671 621 657 q 596 701 636 697 q 517 690 564 704 q 400 613 457 672 q 338 501 343 553 q 367 435 331 454 q 525 400 403 415 q 642 376 601 390 q 708 332 682 361 q 758 213 751 285 q 731 89 765 140 q 504 -73 660 -18 q 236 -85 349 -128 q 119 6 172 -61 q 46 151 65 74 q 52 228 33 203 q 117 250 71 253 q 145 240 139 247 q 167 186 151 232 q 204 101 190 119 q 260 51 225 74 q 322 24 294 28 q 510 69 394 13 q 636 179 625 126 q 630 224 642 200 q 599 258 618 249 q 463 285 568 274 q 332 308 372 294 q 260 353 292 321 q 200 515 189 419 q 289 683 210 601 q 479 804 368 765 q 633 817 554 831 q 746 756 713 803 q 756 652 775 714 q 675 533 736 590 q 635 500 649 507 q 600 493 621 493 z "},"T":{"ha":1046,"x_min":42,"x_max":1015,"o":"m 490 697 q 946 821 919 821 q 999 783 982 822 q 989 718 1015 744 q 943 694 972 701 q 813 658 894 682 q 669 616 731 635 q 607 596 608 597 q 606 588 606 594 q 610 572 607 581 q 599 253 617 551 q 581 -12 585 29 q 563 -62 576 -53 q 515 -77 544 -78 q 471 -61 485 -76 q 460 -5 460 -54 q 474 258 461 44 q 489 563 492 560 q 306 513 486 565 q 113 465 154 471 q 54 479 71 458 q 42 520 43 496 q 51 560 42 544 q 490 697 63 575 z "},"U":{"ha":775,"x_min":39,"x_max":742,"o":"m 189 783 q 188 628 189 767 q 190 408 188 490 q 203 308 193 326 q 407 75 261 75 q 579 201 528 75 q 594 263 592 233 q 597 389 597 293 q 578 631 597 533 q 563 722 564 703 q 572 754 563 740 q 631 787 593 785 q 686 761 668 789 q 731 495 719 710 q 715 183 742 281 q 622 2 683 63 q 464 -67 561 -58 q 217 4 321 -79 q 72 249 113 88 q 42 578 39 376 q 81 808 44 779 q 165 803 119 840 l 189 783 z "},"V":{"ha":722,"x_min":28,"x_max":683,"o":"m 385 228 q 468 493 390 228 q 536 709 517 654 q 568 775 556 764 q 660 765 614 810 q 678 715 683 742 q 569 341 672 690 q 456 -32 465 -8 q 394 -69 440 -69 q 329 -14 357 -69 q 193 332 301 42 q 126 515 163 417 q 69 667 89 614 q 47 728 50 721 q 71 810 28 786 q 122 817 93 822 q 164 794 150 813 q 222 656 168 797 q 328 371 275 514 q 385 228 382 228 z "},"W":{"ha":1006,"x_min":42,"x_max":971,"o":"m 507 158 q 481 161 507 182 q 403 86 461 144 q 263 -39 318 0 q 164 -83 208 -78 q 125 -83 136 -86 q 96 -67 114 -81 q 53 -12 64 -43 q 42 86 42 19 q 82 332 42 207 q 179 565 113 425 q 263 713 246 706 q 326 701 297 725 q 345 650 350 682 q 303 543 340 618 q 178 219 218 376 q 154 99 158 144 q 164 51 150 53 q 240 105 178 51 q 342 206 301 158 q 430 288 393 265 q 508 307 467 310 q 569 283 544 304 q 632 203 594 263 q 685 133 667 150 q 724 115 703 115 q 776 149 749 115 q 817 231 803 183 q 835 399 831 279 q 829 606 839 519 q 821 685 826 633 q 815 739 815 736 q 814 784 811 772 q 831 810 817 796 q 876 831 849 828 q 917 818 904 833 q 941 697 926 807 q 961 493 956 588 q 936 197 971 321 q 829 24 901 72 q 671 -1 746 -33 q 576 76 646 8 q 507 158 507 144 z "},"X":{"ha":975,"x_min":32,"x_max":935,"o":"m 515 349 q 351 145 511 349 q 189 -58 192 -58 q 130 -70 161 -86 q 99 -12 99 -54 q 125 46 99 7 q 257 221 151 85 l 417 425 q 351 470 400 436 q 261 534 303 504 q 173 597 219 564 q 94 656 126 631 q 53 692 63 681 q 47 753 32 717 q 92 790 63 790 q 140 771 110 790 q 313 649 169 751 q 490 525 485 525 q 506 542 492 525 q 542 585 519 558 q 590 646 564 613 q 643 713 617 679 q 692 773 669 746 q 728 816 714 800 q 744 831 743 832 q 799 817 771 849 q 818 754 826 786 q 763 674 821 750 q 647 524 706 599 q 590 449 589 450 q 758 327 619 429 q 911 214 897 225 q 933 169 931 194 q 917 125 935 144 q 858 116 893 100 q 689 228 822 132 q 515 349 522 349 z "},"Y":{"ha":782,"x_min":40,"x_max":747,"o":"m 674 806 q 740 719 747 806 q 664 608 739 706 q 293 38 426 303 q 224 -76 242 -67 q 160 -69 193 -93 q 128 -8 128 -46 q 202 167 128 22 q 329 385 276 311 l 182 531 q 60 659 79 635 q 43 703 40 683 q 114 765 56 765 q 161 747 138 765 q 278 636 185 728 q 347 571 315 600 q 396 527 378 542 q 415 514 414 513 q 564 708 454 568 q 635 792 619 778 q 674 806 651 806 z "},"Z":{"ha":989,"x_min":28,"x_max":947,"o":"m 233 92 q 244 92 233 90 q 272 98 254 93 q 311 108 290 103 q 625 156 467 156 q 815 141 715 156 q 932 111 914 126 q 947 69 946 99 q 935 22 947 40 q 818 7 910 -12 q 654 25 754 21 q 489 17 560 29 q 289 -37 418 4 q 147 -76 190 -71 q 75 -61 104 -81 q 47 40 28 -33 q 115 155 61 89 q 310 361 168 221 q 578 647 578 625 q 549 667 578 654 q 306 650 497 688 q 209 633 240 638 q 156 630 178 628 q 126 642 133 632 q 114 672 119 651 q 146 750 97 729 q 272 783 174 761 q 475 803 367 804 q 570 797 549 800 q 622 778 592 794 q 685 731 668 754 q 701 667 703 707 q 624 486 701 601 q 429 290 617 475 q 233 92 242 106 z "},"_":{"ha":750,"x_min":39,"x_max":711,"o":"m 92 75 l 661 75 l 685 53 q 708 -13 711 26 q 676 -75 706 -53 q 81 -85 669 -85 q 69 -74 79 -83 q 56 -60 58 -64 q 49 -48 54 -57 q 42 -28 43 -39 q 42 -6 40 -18 q 44 24 39 11 q 54 44 49 38 q 74 60 60 50 q 92 75 88 71 z "},"`":{"ha":396,"x_min":42,"x_max":364,"o":"m 275 542 q 217 560 246 542 q 119 646 189 579 q 53 717 64 701 q 42 757 42 732 q 65 815 42 792 q 188 808 115 865 q 293 715 246 761 q 347 653 340 669 q 341 577 364 613 q 275 542 318 542 z "},"a":{"ha":775,"x_min":42,"x_max":733,"o":"m 226 181 q 191 138 226 181 q 156 57 156 94 q 191 13 156 19 q 271 36 226 7 q 419 211 361 97 q 443 331 468 306 q 417 338 432 342 q 365 311 401 335 q 226 181 297 267 m 733 -31 q 717 -72 733 -51 q 683 -93 700 -93 q 544 7 644 -93 l 479 72 q 401 -18 450 26 q 308 -83 353 -62 q 206 -103 264 -104 q 120 -87 151 -101 q 65 -40 89 -74 q 42 40 42 -7 q 53 128 42 92 q 99 214 65 164 q 225 359 154 297 q 358 442 296 421 q 438 449 390 453 q 511 431 486 444 q 567 363 551 407 q 568 271 583 318 q 562 176 549 215 q 628 89 575 138 q 717 2 701 19 q 733 -31 733 -15 z "},"b":{"ha":604,"x_min":39,"x_max":588,"o":"m 272 51 q 352 86 311 51 q 419 176 393 121 q 442 247 442 224 q 419 293 442 269 q 378 315 396 315 q 333 290 361 314 q 253 128 279 243 q 242 74 243 89 q 247 56 242 60 q 272 51 253 51 m 183 760 q 171 517 185 713 q 161 264 157 322 l 186 308 q 263 401 221 372 q 372 435 306 429 q 540 360 492 443 q 539 146 588 276 q 461 15 510 68 q 350 -56 413 -37 q 164 -47 232 -93 q 60 140 96 -1 q 42 367 44 201 q 51 642 39 533 q 69 763 64 742 q 92 796 75 785 q 149 797 119 811 q 183 760 178 782 z "},"c":{"ha":611,"x_min":33,"x_max":578,"o":"m 313 399 q 302 364 313 376 q 242 315 292 351 q 164 174 175 265 q 249 19 147 49 q 349 10 283 8 q 461 24 414 11 q 531 30 508 35 q 563 -1 553 25 q 551 -64 578 -37 q 391 -105 519 -96 q 192 -89 263 -114 q 91 -12 131 -68 q 43 118 51 43 q 91 317 33 222 q 239 449 149 413 q 292 445 272 463 q 313 399 311 428 z "},"d":{"ha":636,"x_min":11,"x_max":613,"o":"m 390 153 q 367 210 390 172 q 311 283 343 249 q 182 268 233 368 q 170 169 158 221 q 226 74 182 118 q 368 96 310 -10 q 390 153 390 135 m 399 421 q 391 508 399 429 q 374 671 383 588 q 365 757 365 754 q 389 790 365 767 q 469 800 431 831 q 510 624 493 781 q 524 325 528 468 q 523 213 521 240 q 535 164 525 186 q 589 -43 613 -17 q 533 -76 571 -81 q 474 -32 494 -72 l 457 3 l 439 -22 q 357 -74 413 -58 q 250 -76 301 -90 q 65 85 119 -43 q 75 336 11 213 q 123 397 90 367 q 183 440 156 428 q 381 408 282 479 q 397 400 394 399 q 399 421 399 401 z "},"e":{"ha":597,"x_min":39,"x_max":556,"o":"m 172 219 q 237 248 179 219 q 308 286 294 276 q 329 309 329 300 q 307 340 329 318 q 276 364 286 364 q 247 350 265 363 q 217 322 229 338 q 197 288 208 313 q 177 241 185 263 q 172 219 169 219 m 161 92 q 181 69 161 82 q 229 47 201 57 q 300 37 258 36 q 463 49 342 38 q 513 50 501 51 q 538 36 525 49 q 555 -10 556 18 q 536 -49 554 -37 q 333 -79 488 -79 q 158 -51 221 -79 q 61 43 94 -22 q 42 130 46 71 q 49 229 39 189 q 134 401 75 331 q 274 485 193 471 q 411 392 357 469 q 417 231 465 314 q 334 160 396 196 q 204 107 272 125 q 161 92 161 94 z "},"f":{"ha":615,"x_min":42,"x_max":579,"o":"m 396 514 q 393 349 388 504 l 450 349 q 522 335 503 349 q 542 286 542 322 q 465 222 542 222 q 429 215 429 222 q 458 107 429 201 q 490 -53 482 22 q 486 -167 499 -129 q 447 -224 476 -194 q 385 -267 417 -254 q 265 -267 332 -287 q 153 -199 197 -247 q 78 -67 114 -157 q 42 76 43 22 q 66 119 42 96 q 110 142 90 142 q 171 64 154 142 q 214 -53 181 11 q 271 -132 247 -117 q 322 -147 296 -147 q 361 -132 347 -147 q 369 -73 376 -114 q 326 76 363 -32 l 289 192 l 254 186 q 205 188 221 181 q 179 215 189 194 q 181 276 165 250 q 236 311 196 301 l 268 321 q 272 550 268 533 q 326 646 290 619 q 386 658 349 661 q 456 636 424 656 q 520 576 483 618 q 569 508 557 535 q 570 466 579 488 q 539 435 561 444 q 488 429 510 421 q 438 474 467 438 q 396 514 404 514 z "},"g":{"ha":607,"x_min":39,"x_max":567,"o":"m 364 388 q 288 410 329 403 q 213 408 246 418 q 167 355 181 393 q 172 292 153 317 q 301 338 199 257 l 364 388 m 417 -132 q 439 -128 436 -132 q 439 -106 442 -125 q 386 226 399 167 l 324 196 q 146 165 221 144 q 47 267 71 185 q 44 348 39 299 q 65 431 49 397 q 111 488 79 458 q 172 529 143 518 q 269 535 199 538 q 401 506 358 532 q 428 438 443 479 q 424 421 422 425 q 439 414 426 417 q 524 199 496 400 q 550 42 531 142 q 566 -110 565 -39 q 553 -201 567 -182 q 452 -253 524 -244 q 318 -232 381 -262 q 226 -158 275 -210 q 140 -43 178 -107 q 106 33 110 10 q 121 81 103 57 q 141 98 132 94 q 171 100 150 101 q 204 90 194 99 q 242 36 214 81 q 417 -132 342 -132 z "},"h":{"ha":493,"x_min":42,"x_max":454,"o":"m 292 746 q 241 528 286 722 q 188 271 196 335 q 171 176 181 211 q 249 203 218 208 q 344 132 279 197 q 433 47 421 58 q 449 7 454 29 q 389 -43 436 -43 q 325 -21 363 -43 q 264 32 288 1 q 235 61 242 61 q 194 -4 229 61 q 141 -92 156 -76 q 99 -108 126 -108 q 53 -92 67 -108 q 42 -60 43 -82 q 44 42 42 -39 q 65 265 50 156 q 131 588 89 415 q 192 781 174 761 q 253 792 214 806 q 292 746 292 778 z "},"i":{"ha":253,"x_min":35,"x_max":213,"o":"m 179 185 q 183 100 179 140 q 189 37 186 60 q 199 -25 192 14 q 210 -85 207 -64 q 210 -117 213 -108 q 194 -136 207 -126 q 124 -140 156 -162 q 74 -51 93 -118 q 56 160 57 10 q 56 289 54 263 q 69 326 58 315 q 113 344 86 344 q 160 324 140 343 q 176 291 174 310 q 179 185 179 272 m 86 611 q 135 613 107 619 q 178 590 163 607 q 196 536 194 571 q 182 482 197 501 q 116 456 158 456 q 54 483 74 456 q 45 555 35 513 q 86 611 56 597 z "},"j":{"ha":407,"x_min":39,"x_max":386,"o":"m 235 403 q 321 397 276 438 q 342 360 338 383 q 354 214 346 338 q 356 -49 365 38 q 315 -186 347 -135 q 240 -234 289 -228 q 145 -217 190 -240 q 78 -160 100 -194 q 42 -2 46 -110 q 68 147 39 106 q 112 162 82 165 q 160 138 142 158 q 176 112 174 122 q 175 71 178 101 q 174 -48 165 1 q 207 -106 183 -97 q 225 -62 218 -110 q 233 63 232 -15 q 226 240 233 142 l 217 388 l 235 403 m 285 465 q 206 526 218 465 q 213 581 200 550 q 244 618 226 611 q 348 592 310 643 q 343 490 386 542 q 319 469 329 474 q 285 465 310 465 z "},"k":{"ha":621,"x_min":42,"x_max":585,"o":"m 203 718 q 190 427 203 696 q 179 124 176 158 l 222 163 q 522 292 443 371 q 542 231 542 274 q 535 186 542 203 q 506 136 529 169 q 469 78 469 88 q 519 53 469 72 q 576 10 569 33 q 572 -40 585 -14 q 538 -72 560 -67 q 465 -62 519 -78 q 376 -26 410 -46 q 335 13 354 -14 q 317 58 317 40 q 224 -21 317 76 q 144 -100 164 -83 q 107 -117 124 -117 q 63 -97 83 -117 q 42 -56 42 -78 q 58 333 42 -21 q 78 707 75 686 q 94 749 83 736 q 160 761 117 774 q 203 718 203 749 z "},"l":{"ha":492,"x_min":39,"x_max":450,"o":"m 450 -51 q 436 -95 450 -82 q 390 -108 422 -108 q 210 -57 304 -108 q 75 67 117 -6 q 68 78 71 72 q 63 89 65 85 q 60 101 61 93 q 57 115 58 110 q 54 131 56 119 q 52 149 53 143 q 49 174 51 156 q 46 201 47 192 q 47 327 39 261 q 65 431 56 393 q 96 535 75 469 q 152 675 115 597 q 203 767 189 753 q 238 780 214 778 q 281 772 263 782 q 304 738 296 764 q 305 701 310 718 q 269 619 300 685 q 171 283 178 424 q 243 74 164 142 q 382 17 297 29 q 450 -51 450 7 z "},"m":{"ha":992,"x_min":40,"x_max":950,"o":"m 78 435 q 118 449 86 449 q 167 428 150 449 q 178 351 183 406 q 169 279 172 289 q 174 282 168 269 q 181 300 176 288 q 240 411 210 378 q 310 443 271 444 q 383 393 353 442 q 440 226 413 344 q 469 110 468 114 q 481 121 472 104 q 500 163 489 136 q 589 318 546 278 q 839 200 697 422 q 910 72 869 151 q 950 -22 950 -8 q 924 -71 950 -51 q 869 -81 897 -90 q 819 -12 854 -75 q 738 124 786 49 q 675 211 689 199 q 653 213 661 224 q 618 129 646 201 q 538 -24 574 19 q 456 -68 503 -68 q 392 -24 415 -68 q 340 151 369 19 q 304 278 313 276 q 301 275 303 278 q 260 143 299 271 q 195 -31 219 8 q 129 -69 171 -69 q 60 -33 81 -69 q 42 93 40 4 q 56 290 43 161 q 78 435 69 419 z "},"n":{"ha":899,"x_min":19,"x_max":857,"o":"m 857 24 q 841 -19 857 -1 q 801 -36 825 -36 q 719 -9 781 -36 q 617 46 658 18 q 492 161 579 71 q 415 237 429 226 q 390 236 401 247 q 344 128 374 219 q 267 -47 303 -1 q 169 -92 231 -92 q 136 -86 149 -92 q 106 -61 124 -81 q 50 356 19 25 q 65 459 57 432 q 92 496 74 486 q 181 479 131 517 q 177 342 181 447 q 174 163 174 238 q 183 57 175 88 l 210 138 q 368 375 281 351 q 460 365 417 389 q 563 271 504 342 q 767 108 656 158 q 838 67 819 85 q 857 24 857 50 z "},"o":{"ha":558,"x_min":42,"x_max":536,"o":"m 367 285 q 335 301 344 299 q 293 296 325 303 q 165 164 208 279 q 150 53 142 101 q 194 -7 158 4 q 293 31 228 -18 q 388 139 358 81 q 367 285 439 238 m 42 86 q 51 172 42 138 q 88 257 60 206 q 285 401 157 385 q 360 406 342 408 q 417 385 379 403 q 513 269 494 347 q 458 47 536 168 q 274 -104 381 -74 q 106 -80 169 -133 q 42 86 42 -26 z "},"p":{"ha":514,"x_min":40,"x_max":482,"o":"m 307 351 q 264 326 293 351 q 222 276 235 300 q 200 218 213 260 q 188 164 188 176 q 213 175 188 157 q 270 219 239 193 q 314 263 301 246 q 332 343 356 319 q 307 351 324 351 m 197 33 l 163 33 l 168 -72 q 173 -197 175 -174 q 156 -232 171 -219 q 83 -233 125 -256 q 60 -212 65 -224 q 47 -156 54 -200 q 43 10 40 -110 q 56 182 46 131 q 121 352 75 281 q 231 456 167 424 q 367 465 294 488 q 461 382 439 442 q 459 263 482 326 q 375 142 436 200 q 197 33 258 33 z "},"q":{"ha":617,"x_min":42,"x_max":575,"o":"m 317 319 q 261 329 313 319 q 182 322 199 343 q 208 290 168 307 q 238 282 228 282 q 274 292 249 282 q 424 292 390 336 q 414 108 458 247 q 389 22 389 31 q 397 22 390 21 q 417 28 403 22 q 446 42 431 33 q 575 8 575 107 q 563 -34 575 -21 q 494 -76 550 -47 q 368 -201 394 -129 q 340 -255 353 -240 q 303 -275 328 -269 q 254 -267 272 -281 q 236 -225 236 -253 q 256 -16 236 -153 q 297 163 276 121 l 258 156 q 113 194 183 140 q 42 317 42 247 q 95 422 42 379 q 224 460 149 465 q 343 432 317 451 q 362 364 372 408 q 317 319 351 319 z "},"r":{"ha":574,"x_min":38,"x_max":538,"o":"m 67 450 q 92 483 74 465 q 128 497 110 501 q 173 478 164 497 q 179 393 182 460 l 175 314 l 200 349 q 331 449 254 424 q 475 439 407 474 q 532 376 526 414 q 494 319 538 339 q 468 315 478 313 q 431 331 458 317 q 372 347 393 350 q 326 313 350 343 q 268 210 294 272 q 201 13 242 147 q 160 -90 179 -64 q 113 -117 142 -117 q 73 -106 86 -117 q 50 -65 60 -94 q 46 172 38 -12 q 67 450 54 357 z "},"s":{"ha":544,"x_min":24,"x_max":525,"o":"m 396 190 q 341 224 351 190 q 365 293 331 258 q 372 319 378 318 q 286 270 336 319 q 246 194 236 221 q 278 178 254 185 q 344 165 301 172 l 388 158 q 449 136 429 150 q 485 92 469 122 q 476 -65 525 11 q 315 -169 428 -142 q 153 -160 224 -193 q 53 -43 83 -126 q 67 64 24 32 q 150 22 118 103 q 206 -56 174 -37 q 290 -56 239 -74 q 359 -15 322 -44 q 396 31 396 15 q 381 48 396 43 q 308 61 367 53 q 172 111 206 76 q 137 195 139 144 q 160 292 135 246 q 231 376 186 338 q 333 425 275 415 q 454 413 390 435 q 502 333 504 392 q 450 221 500 275 q 396 190 419 190 z "},"t":{"ha":649,"x_min":42,"x_max":608,"o":"m 382 360 q 349 358 364 360 q 314 353 335 357 q 283 340 293 350 q 276 317 274 331 q 303 170 276 243 q 367 68 329 97 q 428 43 393 47 q 531 49 463 39 q 575 52 565 54 q 594 36 585 50 q 607 -12 608 15 q 589 -56 606 -39 q 510 -85 568 -76 q 400 -85 453 -94 q 257 -14 315 -68 q 147 315 179 58 l 108 315 q 56 324 71 313 q 42 368 42 335 q 106 438 42 429 q 127 442 121 440 q 140 444 133 443 q 149 451 147 444 q 153 460 151 457 q 157 478 154 463 q 161 501 160 493 q 201 613 174 561 q 260 681 229 664 q 341 666 308 708 q 338 581 374 624 q 292 497 303 536 q 289 478 286 481 q 308 482 292 476 q 388 489 319 486 q 489 438 476 490 q 471 380 499 400 q 382 360 443 360 z "},"u":{"ha":526,"x_min":38,"x_max":485,"o":"m 394 344 q 456 283 431 344 q 483 148 482 222 q 461 11 485 74 q 297 -120 417 -85 q 115 -90 176 -156 q 58 33 79 -51 q 43 201 38 117 q 59 276 46 256 q 104 297 72 296 q 146 280 139 299 q 151 172 153 261 q 167 28 150 67 q 234 -25 189 -21 q 328 14 279 -29 q 363 221 411 89 q 342 292 343 274 q 354 326 340 311 q 394 344 372 344 z "},"v":{"ha":611,"x_min":42,"x_max":574,"o":"m 42 206 q 44 330 42 310 q 61 361 47 350 q 110 376 79 375 q 151 363 140 376 q 164 240 164 347 q 213 32 164 31 q 226 36 218 32 q 318 153 263 57 q 421 372 374 249 q 471 479 460 469 q 513 489 485 490 q 556 475 542 488 q 567 422 574 460 q 518 283 560 383 q 366 -8 432 76 q 215 -103 300 -92 q 120 -81 158 -111 q 57 21 82 -51 q 42 206 42 67 z "},"w":{"ha":886,"x_min":26,"x_max":844,"o":"m 224 450 q 208 369 224 431 q 174 117 171 221 q 218 1 176 13 q 289 26 247 -6 q 401 142 331 58 q 454 167 421 167 q 490 157 475 167 q 546 106 506 147 q 678 13 639 13 q 704 33 692 13 q 714 143 719 58 q 688 292 708 228 q 669 395 664 365 q 715 435 675 425 q 776 412 754 444 q 825 274 797 379 q 842 192 839 224 q 843 97 844 160 q 825 -26 839 0 q 687 -115 779 -112 q 501 -33 594 -117 l 460 4 l 419 -33 q 214 -140 304 -140 q 106 -90 147 -140 q 46 204 26 4 q 78 384 56 297 q 119 490 100 471 q 184 500 144 515 q 224 450 224 485 z "},"x":{"ha":669,"x_min":33,"x_max":629,"o":"m 450 407 q 501 433 478 433 q 547 415 525 433 q 569 378 569 397 q 460 206 569 356 l 425 157 l 482 108 q 601 6 576 32 q 628 -43 626 -21 q 606 -90 629 -71 q 550 -105 576 -115 q 451 -32 524 -94 q 360 42 364 43 q 331 -23 358 39 q 292 -87 303 -85 q 228 -94 261 -110 q 196 -42 194 -78 q 243 101 199 6 q 246 135 257 129 q 137 219 221 149 q 47 303 53 290 q 53 360 33 335 q 108 385 74 385 q 153 366 126 385 q 264 281 181 347 q 326 242 319 238 q 388 324 336 250 q 450 407 440 397 z "},"y":{"ha":681,"x_min":39,"x_max":642,"o":"m 451 410 q 489 474 451 454 q 557 467 526 493 q 576 418 568 457 q 606 235 585 379 q 638 -113 642 -8 q 588 -257 635 -218 q 551 -275 569 -272 q 461 -278 533 -278 q 336 -269 383 -278 q 215 -232 289 -260 q 102 -163 153 -208 q 43 -79 51 -118 q 58 -32 39 -54 q 106 -8 79 -8 q 153 -31 133 -7 q 267 -115 197 -86 q 450 -153 336 -143 l 510 -158 q 482 203 499 200 q 447 192 481 207 q 336 171 397 168 q 232 201 275 174 q 169 336 169 243 q 185 435 169 381 q 219 501 201 489 q 294 493 258 529 q 301 390 329 458 q 305 308 278 333 q 390 307 332 283 q 451 410 451 335 z "},"z":{"ha":767,"x_min":39,"x_max":726,"o":"m 297 -1 q 344 -4 303 -7 q 447 8 385 -1 q 551 29 508 18 q 669 53 638 51 q 713 36 701 54 q 725 -10 726 17 q 710 -51 724 -37 q 563 -95 688 -74 q 335 -117 439 -117 q 222 -107 258 -117 q 164 -74 185 -97 q 160 17 133 -39 q 281 171 186 74 q 399 325 415 310 q 319 314 390 333 q 200 271 249 294 q 63 251 96 219 q 43 288 47 265 q 47 328 39 311 q 135 382 56 343 q 265 435 215 421 q 378 449 311 447 q 476 431 444 451 q 528 313 535 393 q 496 227 525 271 q 382 93 467 183 q 297 -1 297 3 z "},"":{"ha":413,"x_min":42,"x_max":390,"o":"m 288 792 q 361 785 339 818 q 336 706 390 739 q 333 663 286 676 q 367 634 358 654 q 364 589 376 614 q 278 565 338 538 q 213 663 218 593 q 288 792 207 749 m 42 665 q 68 744 42 707 q 135 794 94 781 q 167 802 160 803 q 188 788 174 801 q 161 697 233 742 q 140 676 139 683 q 165 658 142 669 q 199 622 192 646 q 194 578 207 599 q 153 556 181 557 q 74 585 107 553 q 42 665 42 617 z "},"":{"ha":450,"x_min":32,"x_max":408,"o":"m 318 788 q 382 751 356 788 q 408 673 408 715 q 381 596 407 631 q 306 553 353 565 q 240 558 258 540 q 231 610 221 578 q 267 643 240 643 q 307 664 288 643 q 307 675 317 674 q 283 689 296 675 q 264 719 269 703 q 275 763 260 736 q 318 788 290 788 m 81 643 q 121 665 100 643 q 122 675 131 674 q 83 713 93 676 q 97 772 74 750 q 183 771 136 811 q 224 665 231 731 q 100 549 211 568 q 48 568 64 542 q 54 625 32 594 q 81 643 67 643 z "}}}
